<svg width="6" height="5" viewBox="0 0 6 5" fill="none" xmlns="http://www.w3.org/2000/svg">
<path d="M0.13067 0.0304701C0.0978571 0.0468764 0.0533259 0.0960951 0.0298884 0.14297C-0.0052679 0.215626 -0.00761165 0.250783 0.0134821 0.398439C0.0744196 0.829689 0.339263 1.20469 0.714263 1.38985C0.857232 1.46016 0.883013 1.46485 1.11504 1.46485C1.34708 1.46485 1.37286 1.46016 1.51583 1.38985C1.88848 1.20469 2.15567 0.829689 2.21661 0.400783C2.25176 0.147658 2.19083 0.0304701 2.01036 0.00703263C1.93301 -0.00234234 1.90723 0.00468886 1.84161 0.0632826C1.77364 0.12422 1.76192 0.152345 1.74551 0.29297C1.69395 0.721876 1.34239 1.05938 1.02364 0.98672C0.74942 0.925783 0.526763 0.635158 0.484576 0.283595C0.46817 0.154689 0.454107 0.121876 0.390826 0.0656264C0.311138 -0.00468612 0.226763 -0.0164049 0.13067 0.0304701Z" fill="black"/>
<path d="M3.85955 0.0328145C3.73767 0.100783 3.71189 0.246096 3.77517 0.513283C3.92283 1.13906 4.48533 1.575 5.0197 1.47891C5.51189 1.3875 5.93142 0.895314 5.98299 0.342189C6.00408 0.114846 5.91736 2.02656e-06 5.72049 2.02656e-06C5.5822 2.02656e-06 5.52361 0.075002 5.48377 0.300002C5.44392 0.529689 5.39002 0.644533 5.25642 0.792189C5.0197 1.05 4.71033 1.05 4.47361 0.792189C4.34002 0.644533 4.28611 0.529689 4.24627 0.300002C4.21814 0.142971 4.19939 0.0960958 4.15017 0.0539083C4.07986 -0.00702918 3.94861 -0.0164042 3.85955 0.0328145Z" fill="black"/>
<path d="M2.75333 2.51016C2.2963 2.54297 1.81818 2.71172 1.4338 2.97656C1.21583 3.12656 0.892395 3.45937 0.749426 3.67969C0.622864 3.87891 0.482239 4.17187 0.482239 4.24219C0.482239 4.36172 0.592395 4.47422 0.709583 4.47656C0.852551 4.47656 0.894739 4.43672 1.01896 4.18594C1.34943 3.51797 1.92833 3.10078 2.66427 3C2.89396 2.96953 3.35568 3.00234 3.59474 3.07031C4.20411 3.23906 4.68458 3.65156 4.94708 4.23047C5.00568 4.35703 5.04786 4.41797 5.10411 4.45312C5.29161 4.56562 5.49786 4.45547 5.49786 4.24219C5.49786 4.07812 5.22599 3.61406 4.9588 3.32344C4.66583 3.00234 4.1924 2.71406 3.76115 2.59219C3.5713 2.53828 3.17755 2.47969 3.05568 2.48672C3.02521 2.48906 2.88927 2.49844 2.75333 2.51016Z" fill="black"/>
</svg>
