<svg width="12" height="12" viewBox="0 0 12 12" fill="none" xmlns="http://www.w3.org/2000/svg">
<path d="M4.04977 0.0351739C3.17321 0.20158 2.46071 0.848455 2.22633 1.68986C2.15368 1.95236 2.12321 2.27814 2.15836 2.42111C2.21227 2.64611 2.47008 2.82189 2.68102 2.77502C2.9318 2.72111 3.04196 2.58283 3.07477 2.28049C3.10055 2.01799 3.14743 1.85627 3.25055 1.65939C3.40524 1.36174 3.7193 1.10392 4.04274 1.0008C4.2818 0.925799 4.63336 0.928142 4.87243 1.00549C5.43258 1.19064 5.81696 1.71095 5.82164 2.29689C5.82164 2.54064 5.78649 2.70002 5.67633 2.9297C5.52399 3.23908 5.19586 3.51799 4.83961 3.63517C4.76696 3.66095 4.27711 3.67033 2.54274 3.6797C0.116957 3.69377 0.281019 3.68205 0.135707 3.83674C-0.0869493 4.06877 -0.0236681 4.42502 0.264613 4.57267C0.348988 4.6172 0.416957 4.6172 2.60836 4.61252L4.86305 4.60549L5.0693 4.53986C5.75368 4.32658 6.24586 3.90939 6.53883 3.30236C6.80602 2.7422 6.83414 2.06252 6.6068 1.47658C6.46383 1.10392 6.1568 0.703142 5.82633 0.454705C5.63414 0.309392 5.25914 0.131268 5.01539 0.0703301C4.75289 0.00470495 4.30055 -0.0117011 4.04977 0.0351739Z" fill="black"/>
<path d="M9.3 1.875C8.42109 2.03437 7.71563 2.66953 7.46484 3.52734C7.39922 3.75 7.36406 4.12266 7.39219 4.275C7.41094 4.37812 7.54922 4.53984 7.65703 4.58672C7.86328 4.67109 8.11641 4.58906 8.23359 4.40156C8.28984 4.3125 8.30391 4.25391 8.32031 4.07344C8.35313 3.70781 8.475 3.43359 8.70938 3.20156C8.98125 2.93203 9.25313 2.81016 9.62344 2.79375C10.0477 2.775 10.35 2.89219 10.6477 3.18984C11.0063 3.54609 11.1375 4.01016 11.0156 4.48594C10.8961 4.95469 10.5516 5.31797 10.0781 5.47734C9.95625 5.51719 9.75938 5.51953 6.07031 5.53125L2.19141 5.54297L2.10234 5.59922C2.05313 5.62969 1.98516 5.69766 1.95 5.74922C1.89844 5.82891 1.88672 5.87109 1.88672 5.99766C1.88672 6.18281 1.94531 6.29766 2.09297 6.39375L2.18906 6.45703H6.11484H10.043L10.2727 6.39375C12 5.91797 12.5766 3.79219 11.3203 2.52891C11.032 2.23828 10.6617 2.02266 10.2727 1.91953C10.0688 1.86328 9.49922 1.8375 9.3 1.875Z" fill="black"/>
<path d="M0.269275 7.42266C-0.0846313 7.61016 -0.0846313 8.07422 0.269275 8.26875C0.3349 8.30625 0.663025 8.3086 4.24193 8.32032C7.95912 8.33203 8.14896 8.33438 8.26146 8.37422C8.62943 8.51016 8.90834 8.75391 9.06537 9.075C9.17552 9.30235 9.21068 9.45 9.21068 9.69844C9.21068 10.0688 9.08412 10.3664 8.8099 10.6453C8.66693 10.793 8.59427 10.8445 8.4349 10.9195C8.01068 11.1188 7.57474 11.1047 7.17396 10.882C6.97943 10.7742 6.73802 10.5328 6.63724 10.343C6.54818 10.1719 6.46849 9.8836 6.46849 9.72188C6.46849 9.29063 6.00443 9.06328 5.69506 9.34219C5.55912 9.46407 5.52162 9.58828 5.53802 9.83907C5.59896 10.6641 6.07474 11.3789 6.80834 11.7492C7.97318 12.3375 9.38177 11.8453 9.93959 10.6547C10.099 10.3125 10.1365 10.125 10.1341 9.66797C10.1318 9.30469 10.1271 9.25078 10.0685 9.0586C9.94193 8.64141 9.73334 8.29922 9.42631 8.01094C9.1474 7.74844 8.85912 7.58203 8.4724 7.46016L8.26146 7.39453L4.30052 7.38985C0.716931 7.38516 0.332556 7.3875 0.269275 7.42266Z" fill="black"/>
</svg>
