<svg width="12" height="12" viewBox="0 0 12 12" fill="none" xmlns="http://www.w3.org/2000/svg">
<g clip-path="url(#clip0_4_149)">
<path d="M7.39451 0.0374641C7.30779 0.081995 6.65857 0.721839 6.26013 1.16012C5.16794 2.35543 4.30076 3.58121 3.74763 4.7109L3.57419 5.06481L3.48044 5.04606C3.42888 5.03668 3.26013 5.02731 3.10544 5.02731C2.77029 5.02731 2.66716 5.05543 2.37654 5.23356C2.26638 5.29918 2.13748 5.37887 2.0906 5.40699C1.8656 5.54293 1.47888 5.52887 1.23279 5.37653C1.16013 5.332 1.0406 5.25934 0.967944 5.21481C0.773413 5.09528 0.597632 5.03668 0.393726 5.02262C0.138257 5.00387 0.0327881 5.05778 0.0187256 5.21481C0.00466309 5.39762 0.0820068 5.47496 0.299976 5.49606C0.489819 5.51715 0.635132 5.56871 0.782788 5.6695C1.1906 5.95075 1.48591 6.03278 1.88669 5.97887C2.09763 5.9484 2.32029 5.85465 2.55701 5.69293C2.77263 5.54762 2.89919 5.50543 3.13591 5.50543C3.24607 5.50543 3.34451 5.51481 3.35623 5.52653C3.37029 5.54059 3.34451 5.65309 3.29529 5.81481C3.24841 5.96246 3.18748 6.17575 3.15935 6.29293L3.10544 6.50387L3.02341 6.50856C2.75857 6.52731 2.53826 6.61637 2.19607 6.83903C1.84451 7.06871 1.50935 7.06168 1.13904 6.82028C0.778101 6.5859 0.585913 6.51559 0.295288 6.51559C0.168726 6.51559 0.138257 6.52496 0.0866943 6.57418C-0.0140869 6.67731 -0.0140869 6.82262 0.0866943 6.9234C0.128882 6.96559 0.180444 6.98434 0.276538 6.99606C0.492163 7.0195 0.604663 7.05699 0.757007 7.15543C1.13201 7.39918 1.28201 7.46246 1.5656 7.48825C1.89373 7.52106 2.21716 7.42496 2.55701 7.19293C2.71169 7.08981 2.89685 7.00778 2.97888 7.00778C3.02576 7.00778 3.0281 7.01481 3.01404 7.32887C3.00466 7.50699 3.00701 7.73434 3.01873 7.83512C3.03513 7.99918 3.03279 8.02028 2.99529 8.04137C2.94373 8.06949 2.88279 8.18434 2.88279 8.25465C2.88279 8.34371 2.96951 8.4609 3.04685 8.47496C3.10544 8.48903 3.12185 8.50543 3.1406 8.58746C3.18982 8.78903 3.31169 9.1359 3.40076 9.32574C3.44998 9.43356 3.49216 9.52496 3.49216 9.52731C3.49216 9.52965 3.36794 9.52731 3.21326 9.52028C2.8031 9.50387 2.62498 9.56012 2.19607 9.83903C2.05076 9.93278 1.98279 9.96324 1.84919 9.98434C1.57966 10.0312 1.39451 9.98668 1.13904 9.82028C0.778101 9.5859 0.585913 9.51559 0.295288 9.51559C0.168726 9.51559 0.138257 9.52496 0.0866943 9.57418C-0.0140869 9.67731 -0.0140869 9.82262 0.0866943 9.9234C0.128882 9.96559 0.180444 9.98434 0.276538 9.99606C0.499194 10.0195 0.607007 10.057 0.782788 10.1718C1.1531 10.4109 1.27498 10.4601 1.5656 10.4882C1.89841 10.5234 2.19607 10.432 2.58044 10.1789C2.81013 10.0312 2.92029 9.9984 3.18044 10.0125C3.4031 10.0242 3.48279 10.0523 3.72654 10.2187C3.79685 10.2656 3.90232 10.3289 3.96091 10.3593C4.01951 10.3875 4.17654 10.5234 4.31248 10.657C5.17732 11.5265 6.28123 11.9859 7.49998 11.9859C7.93591 11.9859 8.21247 11.9531 8.62498 11.8476C10.0406 11.4867 11.2078 10.4297 11.7211 9.03512C12.0234 8.21715 12.0703 7.2609 11.8547 6.35387C11.5031 4.86793 10.5258 3.18746 8.99763 1.44137C8.62732 1.01715 7.69919 0.081995 7.60544 0.0374641C7.50935 -0.00941086 7.48357 -0.00941086 7.39451 0.0374641ZM7.91951 1.02184C9.25779 2.39293 10.3265 3.8695 10.9054 5.1445C11.4515 6.34684 11.6109 7.32887 11.414 8.30153C11.114 9.78043 9.96091 10.9968 8.50076 11.3695C8.14685 11.4586 7.90076 11.489 7.49998 11.489C6.67498 11.489 5.94841 11.2687 5.27341 10.8164C4.9031 10.5679 4.7906 10.4531 4.91716 10.4531C4.9781 10.4531 5.27576 10.3054 5.43748 10.1953C5.62966 10.064 5.72341 10.0289 5.92732 10.0054C6.15466 9.97965 6.23435 9.91403 6.23435 9.74996C6.23435 9.6609 6.22263 9.63043 6.16404 9.57418C6.10076 9.51324 6.08201 9.50856 5.92732 9.5109C5.65779 9.51559 5.42107 9.60231 5.13279 9.79684C5.06248 9.84371 4.96873 9.90231 4.92654 9.9234C4.82107 9.97731 4.60544 10.0101 4.47185 9.99371C4.37107 9.97965 4.35232 9.96559 4.27029 9.85778C4.07107 9.59293 3.83904 9.14762 3.72654 8.82653L3.68201 8.69059L3.75701 8.74215C4.28669 9.09606 4.87263 9.07965 5.43982 8.69293C5.65076 8.54996 5.77732 8.50778 5.99998 8.50778C6.22498 8.50778 6.35388 8.54762 6.57654 8.6859C6.86248 8.86168 7.07576 8.95074 7.28201 8.98121C7.57732 9.0234 7.73435 8.95074 7.73904 8.77028C7.74373 8.59449 7.65935 8.52653 7.38982 8.48903C7.18591 8.4609 7.09919 8.4234 6.78279 8.23356C6.49216 8.05543 6.37732 8.02731 5.98826 8.02731C5.60623 8.02965 5.51248 8.05778 5.21013 8.25465C4.91248 8.44918 4.80466 8.49137 4.58435 8.49137C4.33826 8.49371 4.23982 8.46324 4.01716 8.31559C3.91404 8.24996 3.76638 8.16559 3.68904 8.12809C3.52263 8.05074 3.52732 8.06481 3.50388 7.66403C3.47576 7.22574 3.56716 6.58824 3.73826 6.05387L3.82029 5.79137L3.97029 5.86168C4.4531 6.08668 4.94294 6.03278 5.43982 5.69293C5.61091 5.57809 5.77966 5.50778 5.88982 5.50778C6.1031 5.50778 6.23435 5.40934 6.23435 5.24528C6.23435 5.17262 6.21794 5.13746 6.16169 5.08121L6.09138 5.00856L5.87576 5.02028C5.6156 5.03668 5.46326 5.09059 5.21013 5.25465C4.89607 5.4609 4.80232 5.49371 4.55857 5.49137C4.33826 5.49137 4.27263 5.47262 4.10857 5.37653L4.01013 5.32028L4.13904 5.04606C4.72263 3.80153 5.7656 2.3695 7.04294 1.05934C7.28435 0.813245 7.4906 0.609339 7.49998 0.609339C7.50935 0.609339 7.69919 0.794496 7.91951 1.02184Z" fill="#3CACF2"/>
<path d="M8.77735 6.5086C8.50781 6.525 8.31094 6.60235 7.97813 6.82032C7.76016 6.96328 7.66172 6.99375 7.41563 6.99141C7.19531 6.99141 7.0875 6.94922 6.78985 6.75469C6.48281 6.55313 6.3961 6.52969 6 6.52969C5.60391 6.52969 5.51719 6.55313 5.21016 6.75469C4.95235 6.92344 4.81875 6.97969 4.6336 6.99844C4.37813 7.02422 4.26797 7.15782 4.34766 7.35C4.40156 7.47891 4.50938 7.51172 4.75547 7.48125C4.97813 7.45078 5.1961 7.35938 5.43985 7.19297C5.65078 7.05 5.77735 7.00782 6 7.00782C6.22266 7.00782 6.34922 7.05 6.56016 7.19297C7.14141 7.58907 7.71094 7.60078 8.26407 7.22578C8.48438 7.07578 8.58985 7.03125 8.77735 7.00782C8.87578 6.9961 8.97422 6.975 9 6.96094C9.05625 6.93047 9.11719 6.81797 9.11719 6.74532C9.11719 6.70078 9.03985 6.53907 9.01875 6.53907C9.01407 6.53907 8.97891 6.53203 8.94141 6.52032C8.90157 6.51094 8.82891 6.50625 8.77735 6.5086Z" fill="#3CACF2"/>
<path d="M0.0866943 8.07421C-0.0140869 8.17734 -0.0140869 8.32265 0.0866943 8.42343C0.128882 8.46562 0.180444 8.48437 0.276538 8.49609C0.499194 8.51953 0.607007 8.55703 0.782788 8.67187C1.16482 8.91796 1.32185 8.9789 1.59373 8.98593C1.82576 8.99062 1.92185 8.91796 1.92185 8.73984C1.92185 8.59453 1.83044 8.52421 1.60779 8.49843C1.41326 8.475 1.32419 8.44218 1.13904 8.32031C0.778101 8.08593 0.585913 8.01562 0.295288 8.01562C0.168726 8.01562 0.138257 8.025 0.0866943 8.07421Z" fill="#3CACF2"/>
</g>
<defs>
<clipPath id="clip0_4_149">
<rect width="12" height="12" fill="white"/>
</clipPath>
</defs>
</svg>
