<svg width="4" height="4" viewBox="0 0 4 4" fill="none" xmlns="http://www.w3.org/2000/svg">
    <g clip-path="url(#clip0_4_271)">
    <path d="M1.40693 0.00509024C1.01058 0.054455 0.645609 0.245631 0.391835 0.539128C-0.0789483 1.08214 -0.130959 1.8648 0.265396 2.45717C0.661751 3.04955 1.39528 3.30535 2.07051 3.08725C2.19785 3.04596 2.39692 2.94544 2.50094 2.86915L2.58613 2.80722L3.17349 3.39331C3.49631 3.71553 3.77071 3.98389 3.78237 3.99018C3.81107 4.00454 3.8846 4.00274 3.91509 3.98748C3.94378 3.97222 3.97337 3.94171 3.98952 3.91029C4.00476 3.88068 4.00297 3.80977 3.98683 3.77836C3.97875 3.764 3.71243 3.49204 3.39409 3.17341C3.07575 2.85479 2.8148 2.59091 2.8148 2.58552C2.8148 2.58104 2.8408 2.53975 2.87309 2.49577C2.94213 2.39973 3.04616 2.19599 3.08292 2.0829C3.21474 1.68349 3.18605 1.26255 3.00401 0.889169C2.77714 0.426037 2.35747 0.110103 1.84723 0.0185535C1.75397 0.00150013 1.4993 -0.00568008 1.40693 0.00509024ZM1.81943 0.337181C2.27228 0.424242 2.63725 0.744665 2.78341 1.18356C2.82915 1.31909 2.84529 1.42321 2.84529 1.58028C2.84529 1.73735 2.82915 1.84146 2.78341 1.97789C2.63635 2.41768 2.25703 2.74618 1.80149 2.82876C1.68671 2.8503 1.47688 2.8494 1.3621 2.82876C0.898487 2.74439 0.511997 2.40422 0.375694 1.96173C0.332651 1.82082 0.3192 1.72927 0.3192 1.58028C0.3192 1.23562 0.444742 0.931353 0.689549 0.687222C0.903868 0.471812 1.17109 0.347054 1.48316 0.31564C1.5522 0.308459 1.73334 0.320127 1.81943 0.337181Z" fill="black"/>
    </g>
    <defs>
    <clipPath id="clip0_4_271">
    <rect width="4" height="4" fill="white"/>
    </clipPath>
    </defs>
</svg>
