<svg width="12" height="12" viewBox="0 0 12 12" fill="none" xmlns="http://www.w3.org/2000/svg">
<g clip-path="url(#clip0_4_159)">
<path d="M5.48434 0.0375071C5.16091 0.105476 4.81403 0.344539 4.62653 0.625789C4.57731 0.698444 4.50466 0.850788 4.46716 0.960945L4.3945 1.16016L4.38278 4.37345L4.37106 7.58438L4.20231 7.72969C3.66325 8.19376 3.37028 8.83594 3.36794 9.56251C3.36559 10.2141 3.58825 10.7719 4.04294 11.2477C4.72731 11.9649 5.77497 12.1899 6.70309 11.8219C7.23278 11.6109 7.69919 11.1797 7.957 10.6641C8.15388 10.2703 8.21481 9.99845 8.21247 9.53907C8.21013 9.25313 8.20075 9.16407 8.14919 8.97188C8.07888 8.70938 7.94763 8.41173 7.80466 8.20313C7.68747 8.03204 7.42966 7.75313 7.29138 7.65235L7.19528 7.58204V4.42969C7.19528 0.935163 7.20231 1.10391 7.04059 0.773445C6.97731 0.644539 6.90466 0.548445 6.77575 0.419538C6.42653 0.0703201 5.96481 -0.0656176 5.48434 0.0375071ZM6.15466 0.438289C6.41716 0.53907 6.64919 0.768757 6.757 1.03126L6.80856 1.16016L6.82028 4.46485C6.82731 6.28126 6.83434 7.77188 6.83903 7.77423C7.34059 8.13048 7.64997 8.54298 7.78591 9.03985C7.86091 9.30938 7.86091 9.82735 7.78591 10.0852C7.57966 10.807 7.07106 11.3297 6.36325 11.5453C6.17341 11.6039 6.11481 11.6109 5.80075 11.6109C5.50309 11.6133 5.42106 11.6039 5.26169 11.5594C4.51638 11.3461 3.96794 10.7766 3.78044 10.0172C3.72184 9.77579 3.72888 9.30235 3.7945 9.0586C3.92106 8.58516 4.17184 8.22891 4.64763 7.84454L4.75778 7.75548V4.54923C4.75778 2.49844 4.76716 1.2961 4.78122 1.21641C4.85153 0.836726 5.17263 0.494538 5.54997 0.398445C5.68591 0.363289 6.01872 0.386726 6.15466 0.438289Z" fill="#C25858"/>
<path d="M5.70466 1.29375C5.67654 1.30547 5.64138 1.34297 5.62732 1.37344C5.60857 1.41563 5.60154 2.40938 5.60154 4.93359V8.43281L5.52654 8.44922C5.23591 8.5125 4.91013 8.77031 4.77185 9.04922C4.38982 9.81328 4.9406 10.7109 5.79373 10.7109C6.52029 10.7109 7.06169 10.0406 6.91169 9.32344C6.82732 8.92266 6.48044 8.55938 6.08904 8.46094L5.97654 8.43281V4.90547V1.38047L5.91794 1.32422C5.85935 1.26328 5.78669 1.25156 5.70466 1.29375Z" fill="#C25858"/>
<path d="M2.482 0.0773563C2.40466 0.138294 2.39059 0.206263 2.39059 0.560169V0.914075H1.47653H0.560126L0.503876 0.972669C0.426532 1.04767 0.426532 1.15548 0.503876 1.23048L0.560126 1.28907H1.47653H2.39059V1.54689V1.8047H1.82809C1.37809 1.8047 1.24919 1.81173 1.19763 1.83986C1.08513 1.89611 1.06638 2.0297 1.16013 2.12111L1.21638 2.1797H1.80466H2.39059V2.43751V2.69532H1.51403C0.614032 2.69532 0.513251 2.7047 0.46872 2.78907C0.428876 2.86407 0.442939 2.96486 0.499189 3.01876C0.553095 3.07032 0.56247 3.07032 1.47184 3.07032H2.39059V3.33986V3.60939H1.79763C1.207 3.60939 1.20231 3.60939 1.15309 3.66329C1.12497 3.69376 1.10153 3.74532 1.10153 3.77814C1.10153 3.97032 1.15075 3.98439 1.82809 3.98439H2.39059V4.2422V4.50001H1.47653H0.560126L0.503876 4.55861C0.426532 4.63361 0.426532 4.74142 0.503876 4.81642L0.560126 4.87501H1.47653H2.39059V5.13282V5.39064H1.80466H1.21638L1.16013 5.44923C1.08278 5.52423 1.08278 5.63204 1.16013 5.70704L1.21638 5.76564H1.80466H2.39059V6.02345V6.28126H1.49997C0.56247 6.28126 0.499189 6.28829 0.459345 6.38673C0.428876 6.46642 0.445282 6.55548 0.499189 6.6047C0.553095 6.65626 0.56247 6.65626 1.47184 6.65626H2.39059V6.92579V7.19532H1.79763C1.207 7.19532 1.20231 7.19532 1.15309 7.24923C1.0945 7.31017 1.08747 7.42032 1.13434 7.48126C1.19294 7.55861 1.28669 7.57032 1.84216 7.57032H2.39059V7.93126C2.39059 8.27814 2.39294 8.29689 2.4445 8.35782C2.51716 8.43986 2.62497 8.44454 2.707 8.3672L2.76559 8.31329V4.23751V0.161732L2.707 0.105481C2.64606 0.0422001 2.54294 0.0304813 2.482 0.0773563Z" fill="#C25858"/>
<path d="M9.26479 0.808599C9.00229 0.881255 8.81714 1.06172 8.73745 1.31954C8.67886 1.51876 8.69292 1.67579 8.7937 1.87501C9.02104 2.33438 9.66323 2.41407 10.0031 2.02501C10.2679 1.72735 10.2562 1.28438 9.97495 1.00547C9.79214 0.820318 9.5062 0.74063 9.26479 0.808599ZM9.60932 1.20001C9.74526 1.27032 9.82026 1.38047 9.82026 1.51641C9.82026 1.90079 9.36557 2.04376 9.13354 1.73204C9.01401 1.56797 9.08667 1.30547 9.2812 1.20235C9.40776 1.13438 9.47807 1.13438 9.60932 1.20001Z" fill="#C25858"/>
<path d="M10.0031 3.00235C8.87107 3.1547 8.15857 4.28907 8.51951 5.3672C8.69997 5.90157 9.13357 6.33516 9.66326 6.50391C10.2844 6.70313 10.95 6.56485 11.4164 6.14532C11.5242 6.04688 11.5547 6.0047 11.5547 5.95313C11.5547 5.8547 11.5336 5.81485 11.4562 5.77501C11.3695 5.73048 11.3133 5.74688 11.1797 5.85938C10.889 6.10079 10.5961 6.21329 10.2539 6.21563C9.98669 6.22032 9.83669 6.18516 9.58591 6.06329C9.1031 5.82891 8.80779 5.3461 8.80779 4.79298C8.80779 4.3922 8.94138 4.06641 9.22497 3.78282C9.40544 3.60001 9.6656 3.4547 9.90935 3.39845C10.0664 3.36329 10.3945 3.36329 10.5515 3.39845C10.7343 3.44063 10.9851 3.5672 11.1469 3.69845C11.3226 3.83907 11.3672 3.85782 11.4562 3.81095C11.5969 3.73829 11.5922 3.60938 11.4445 3.46407C11.0859 3.1172 10.514 2.93204 10.0031 3.00235Z" fill="#C25858"/>
</g>
<defs>
<clipPath id="clip0_4_159">
<rect width="12" height="12" fill="white"/>
</clipPath>
</defs>
</svg>
